<svg id="Capa_1" data-name="Capa 1" xmlns="http://www.w3.org/2000/svg" viewBox="0 0 983 385"><defs><style>.cls-1{fill:#ffd772;}.cls-1,.cls-2,.cls-3,.cls-4,.cls-5,.cls-6,.cls-7,.cls-8{fill-rule:evenodd;}.cls-2{fill:#f9f7f8;}.cls-3{fill:#75cef8;}.cls-4{fill:#eb5468;}.cls-5{fill:#dddaec;}.cls-6{fill:#e5384f;}.cls-7{fill:#60b7ff;}.cls-8{fill:#fbba58;}</style></defs><path class="cls-1" d="M125.86,329.25H293.51l16-30.63-16-30.65H125.86Z"/><path class="cls-2" d="M125.86,329.25V265.63a3,3,0,0,0-3-2.94h-66A2.94,2.94,0,0,0,54,265.63v66a3,3,0,0,0,2.91,3h66a3,3,0,0,0,2.92-3v-2.35Z"/><path class="cls-2" d="M56.93,228.43h66a3,3,0,0,0,3-2.94v-66a3,3,0,0,0-3-2.95h-66A3,3,0,0,0,54,159.51v66A3,3,0,0,0,56.93,228.43Z"/><path class="cls-3" d="M125.86,161.84v61.3H293.51l16-30.65-16-30.65Z"/><path class="cls-4" d="M125.86,117H293.51l16-30.63-16-30.65H125.86Z"/><path class="cls-2" d="M125.86,117V53.38a3,3,0,0,0-3-2.94h-66A2.94,2.94,0,0,0,54,53.38v66a3,3,0,0,0,2.94,3h66a3,3,0,0,0,3-3Z"/><path class="cls-5" d="M105,55.73v63.63a3,3,0,0,1-3,3H122.9a3,3,0,0,0,3-3v-66a3,3,0,0,0-3-2.94H102.05a3,3,0,0,1,3,2.94Z"/><path class="cls-5" d="M122.9,156.56H102.05a3,3,0,0,1,3,2.95v66a3,3,0,0,1-3,2.94H122.9a3,3,0,0,0,3-2.94v-66A3,3,0,0,0,122.9,156.56Z"/><path class="cls-5" d="M122.9,262.69H102.05a3,3,0,0,1,3,2.94v66a3,3,0,0,1-2.92,3h20.86a3,3,0,0,0,2.92-3v-66A3,3,0,0,0,122.9,262.69Z"/><path class="cls-6" d="M267.43,55.73a101.55,101.55,0,0,1,5.94,34.57A102.81,102.81,0,0,1,269.91,117h23.6l16-30.63-16-30.65Z"/><path class="cls-7" d="M267.43,161.84a101.67,101.67,0,0,1,5.94,34.59,103,103,0,0,1-3.46,26.71h23.6l16-30.65-16-30.65Z"/><path class="cls-8" d="M267.43,268a101.65,101.65,0,0,1,5.94,34.58,102.9,102.9,0,0,1-3.46,26.7h23.6l16-30.63-16-30.64H267.43Z"/><path d="M56.93,126.6h66a7.26,7.26,0,0,0,7-5.3H293.51a4.3,4.3,0,0,0,3.8-2.3l16-30.63a4.31,4.31,0,0,0,0-4l-16-30.64a4.28,4.28,0,0,0-3.8-2.3H222.33a4.29,4.29,0,1,0,0,8.57h68.58L304.7,86.38l-13.79,26.34H130.15V60h72.13a4.29,4.29,0,0,0,0-8.58H129.87a7.24,7.24,0,0,0-7-5.28h-66a7.24,7.24,0,0,0-7.23,7.22v66a7.25,7.25,0,0,0,7.23,7.24Zm1.35-71.87h63.29V118H58.28Z"/><path d="M297.31,159.86a4.28,4.28,0,0,0-3.8-2.3H129.87a7.25,7.25,0,0,0-7-5.29h-66a7.25,7.25,0,0,0-7.23,7.24v66a7.24,7.24,0,0,0,7.23,7.22h66a7.24,7.24,0,0,0,7-5.29H293.51a4.28,4.28,0,0,0,3.8-2.3l16-30.64a4.31,4.31,0,0,0,0-4ZM121.57,224.14H58.28v-63.3h63.29Zm169.34-5.29H130.15V166.13H290.91l13.79,26.36Z"/><path d="M93.29,66.31H86.54a4.29,4.29,0,0,0,0,8.57H89v27.26a4.29,4.29,0,1,0,8.57,0V70.59A4.29,4.29,0,0,0,93.29,66.31Z"/><path d="M98.53,204.22c-2.66,0-5.46.06-7.94.07C92.26,202,94.44,199,97.25,195a24.91,24.91,0,0,0,4-8.33c0-.16.06-.31.08-.47l.15-1.23a4.36,4.36,0,0,0,0-.51,12.36,12.36,0,0,0-24.49-2.38,4.28,4.28,0,0,0,8.41,1.64,3.79,3.79,0,0,1,7.5.53l-.08.66a16.73,16.73,0,0,1-2.66,5.17c-5,7.16-8,11.05-9.58,13.14-2,2.6-3.08,4-2.37,6.35a4.44,4.44,0,0,0,2.88,2.93c.57.19,1,.35,7.22.35,2.42,0,5.73,0,10.27-.08a4.29,4.29,0,1,0-.11-8.57Z"/><path d="M89.93,278.17a12.42,12.42,0,0,0-12.14,10,4.29,4.29,0,1,0,8.41,1.68,3.79,3.79,0,1,1,3.73,4.51,4.29,4.29,0,1,0,0,8.58,3.79,3.79,0,1,1-3.75,4.36,5.36,5.36,0,0,1-.05-.59,4.29,4.29,0,0,0-8.57,0,12.15,12.15,0,0,0,.12,1.72,12.36,12.36,0,1,0,21.59-9.78,12.36,12.36,0,0,0-9.34-20.45Z"/><path d="M149.36,80.47H175.8a4.29,4.29,0,0,0,0-8.58H149.36a4.29,4.29,0,0,0,0,8.58Z"/><path d="M149.36,101.52h53.75a4.29,4.29,0,1,0,0-8.57H149.36a4.29,4.29,0,1,0,0,8.57Z"/><path d="M149.36,185.89H175.8a4.29,4.29,0,1,0,0-8.57H149.36a4.29,4.29,0,1,0,0,8.57Z"/><path d="M203.11,198.39H149.36a4.29,4.29,0,1,0,0,8.57h53.75a4.29,4.29,0,1,0,0-8.57Z"/><path d="M149.36,292.68H175.8a4.29,4.29,0,0,0,0-8.58H149.36a4.29,4.29,0,0,0,0,8.58Z"/><path d="M149.36,313.73h53.75a4.29,4.29,0,1,0,0-8.57H149.36a4.29,4.29,0,1,0,0,8.57Z"/><path d="M297.31,266a4.28,4.28,0,0,0-3.8-2.3H222.33a4.29,4.29,0,1,0,0,8.57h68.58l13.79,26.36L290.91,325H130.15v-52.7h72.13a4.29,4.29,0,0,0,0-8.57H129.87a7.24,7.24,0,0,0-7-5.29h-66a7.24,7.24,0,0,0-7.23,7.23v66a7.25,7.25,0,0,0,7.23,7.24h66a7.26,7.26,0,0,0,7-5.3H293.51a4.3,4.3,0,0,0,3.8-2.3l16-30.63a4.31,4.31,0,0,0,0-4ZM121.57,330.27H58.28V267h63.29Z"/><path d="M370.19,55.16l19.6,40.28-9.41,19.32L351.3,55.16Zm69.08,29.66-36.65,75.42-9.48-19.32,27.24-56.1Z"/><path d="M481.66,57.51h17v99.88h-17Z"/><path d="M551.06,115.9a19.85,19.85,0,0,1-19.82-19.82V77.33a19,19,0,0,1,4.92-13,19.26,19.26,0,0,1,12.05-6.63H608V74.48H548.21v21.6a2.61,2.61,0,0,0,.86,2,2.57,2.57,0,0,0,2,.85h42.21a19,19,0,0,1,13,4.92,18.74,18.74,0,0,1,6.56,12.05H551.06Zm62,17.39v4.35a19.84,19.84,0,0,1-19.81,19.75h-58v-17h58a2.86,2.86,0,0,0,2-.78,2.75,2.75,0,0,0,.86-2v-4.35Z"/><path d="M680.57,140.42v17H665.1a19.72,19.72,0,0,1-19.82-19.75V57.51h17v80.13a2.84,2.84,0,0,0,.79,2,3,3,0,0,0,2.07.78Zm29.58-82.91h16.9v99.88h-16.9Z"/><path d="M861.47,157.39H842.58l-6.85-14.12H816.34v-17h11L810.21,91l-32.43,66.44h-18.9l51.33-99.88Z"/><path d="M351.3,232.78h17V295h-17Zm0,82.84h65.44v17H351.3Z"/><path d="M502.08,232.71h17v99.88h-17Z"/><path d="M624.78,291.1A19.84,19.84,0,0,1,605,271.28V252.53a19,19,0,0,1,4.92-13,19.26,19.26,0,0,1,12-6.63h59.81v16.75H621.93v21.6a2.9,2.9,0,0,0,2.85,2.85H667a19,19,0,0,1,13,4.92,18.75,18.75,0,0,1,6.55,12.05H624.78Zm62,17.39v4.35A19.85,19.85,0,0,1,667,332.59H609v-17h58a2.88,2.88,0,0,0,2-.78,2.74,2.74,0,0,0,.85-2v-4.35Z"/><path d="M772.28,232.71H849v17H772.28Zm29.87,38.36h17v61.52h-17Z"/></svg>