<?xml version="1.0" encoding="utf-8"?>
<!-- Generator: Adobe Illustrator 26.0.1, SVG Export Plug-In . SVG Version: 6.00 Build 0)  -->
<svg version="1.1" id="Capa_1" xmlns="http://www.w3.org/2000/svg" xmlns:xlink="http://www.w3.org/1999/xlink" x="0px" y="0px"
	 viewBox="0 0 983 385" style="enable-background:new 0 0 983 385;" xml:space="preserve">
<style type="text/css">
	.st0{fill-rule:evenodd;clip-rule:evenodd;fill:#FFD772;}
	.st1{fill-rule:evenodd;clip-rule:evenodd;fill:#F9F7F8;}
	.st2{fill-rule:evenodd;clip-rule:evenodd;fill:#75CEF8;}
	.st3{fill-rule:evenodd;clip-rule:evenodd;fill:#EB5468;}
	.st4{fill-rule:evenodd;clip-rule:evenodd;fill:#DDDAEC;}
	.st5{fill-rule:evenodd;clip-rule:evenodd;fill:#E5384F;}
	.st6{fill-rule:evenodd;clip-rule:evenodd;fill:#60B7FF;}
	.st7{fill-rule:evenodd;clip-rule:evenodd;fill:#FBBA58;}
</style>
<g>
	<g>
		<path class="st0" d="M125.9,329.3h167.6l16-30.6l-16-30.6H125.9L125.9,329.3z"/>
	</g>
	<g>
		<path class="st1" d="M125.9,329.3V268v-2.3c0-1.6-1.3-2.9-3-2.9h-66c-1.6,0-2.9,1.3-2.9,2.9v66c0,1.6,1.3,2.9,2.9,3h0h66h0
			c1.6,0,2.9-1.3,2.9-3L125.9,329.3L125.9,329.3z"/>
	</g>
	<g>
		<path class="st1" d="M56.9,228.4h66c1.6,0,3-1.3,3-2.9v-2.3v-61.3v-2.3c0-1.6-1.3-3-3-3h-66c-1.6,0-2.9,1.3-2.9,3v66
			C54,227.1,55.3,228.4,56.9,228.4z"/>
	</g>
	<g>
		<path class="st2" d="M125.9,161.8v61.3h167.6l16-30.6l-16-30.6H125.9z"/>
	</g>
	<g>
		<path class="st3" d="M125.9,117h167.6l16-30.6l-16-30.6H125.9L125.9,117z"/>
	</g>
	<g>
		<path class="st1" d="M125.9,117V55.7v-2.3c0-1.6-1.3-2.9-3-2.9h-66c-1.6,0-2.9,1.3-2.9,2.9v66c0,1.6,1.3,3,2.9,3h66
			c1.6,0,3-1.3,3-3V117z"/>
	</g>
	<g>
		<path class="st4" d="M105,55.7V117v2.3c0,1.6-1.3,3-3,3h20.9c1.6,0,3-1.3,3-3V117V55.7v-2.3c0-1.6-1.3-2.9-3-2.9H102
			c1.6,0,3,1.3,3,2.9L105,55.7z"/>
	</g>
	<g>
		<path class="st4" d="M122.9,156.6H102c1.6,0,3,1.3,3,3v2.3v61.3v2.3c0,1.6-1.3,2.9-3,2.9h20.9c1.6,0,3-1.3,3-2.9v-2.3v-61.3v-2.3
			C125.9,157.9,124.5,156.6,122.9,156.6z"/>
	</g>
	<g>
		<path class="st4" d="M122.9,262.7H102c1.6,0,3,1.3,3,2.9v2.3v61.3v2.3c0,1.6-1.3,2.9-2.9,3h20.8h0c1.6,0,2.9-1.3,2.9-3v-2.3V268
			v-2.3C125.9,264,124.5,262.7,122.9,262.7z"/>
	</g>
	<g>
		<path class="st5" d="M267.4,55.7c3.8,10.5,5.9,22.2,5.9,34.6c0,9.4-1.2,18.3-3.5,26.7h23.6l16-30.6l-16-30.6L267.4,55.7
			L267.4,55.7z"/>
	</g>
	<g>
		<path class="st6" d="M267.4,161.8c3.8,10.5,5.9,22.2,5.9,34.6c0,9.3-1.2,18.3-3.5,26.7h23.6l16-30.6l-16-30.6H267.4z"/>
	</g>
	<g>
		<path class="st7" d="M267.4,268c3.8,10.5,5.9,22.2,5.9,34.6c0,9.3-1.2,18.3-3.5,26.7h23.6l16-30.6l-16-30.6L267.4,268L267.4,268z"
			/>
	</g>
	<g>
		<path d="M56.9,126.6h66c3.3,0,6.1-2.3,7-5.3h163.6c1.6,0,3.1-0.9,3.8-2.3l16-30.6c0.7-1.2,0.7-2.7,0-4l-16-30.6
			c-0.7-1.4-2.2-2.3-3.8-2.3h-71.2c-2.4,0-4.3,1.9-4.3,4.3s1.9,4.3,4.3,4.3h68.6l13.8,26.4l-13.8,26.3H130.1V60h72.1
			c2.4,0,4.3-1.9,4.3-4.3s-1.9-4.3-4.3-4.3h-72.4c-0.9-3-3.7-5.3-7-5.3h-66c-4,0-7.2,3.2-7.2,7.2v66
			C49.7,123.4,52.9,126.6,56.9,126.6L56.9,126.6z M58.3,54.7h63.3V118H58.3V54.7z"/>
		<path d="M297.3,159.9c-0.7-1.4-2.2-2.3-3.8-2.3H129.9c-0.9-3-3.7-5.3-7-5.3h-66c-4,0-7.2,3.2-7.2,7.2v66c0,4,3.2,7.2,7.2,7.2h66
			c3.3,0,6.1-2.2,7-5.3h163.6c1.6,0,3.1-0.9,3.8-2.3l16-30.6c0.7-1.2,0.7-2.7,0-4L297.3,159.9z M121.6,224.1H58.3v-63.3h63.3V224.1z
			 M290.9,218.9H130.1v-52.7h160.8l13.8,26.4L290.9,218.9z"/>
		<path d="M93.3,66.3h-6.7c-2.4,0-4.3,1.9-4.3,4.3c0,2.4,1.9,4.3,4.3,4.3H89v27.3c0,2.4,1.9,4.3,4.3,4.3c2.4,0,4.3-1.9,4.3-4.3V70.6
			C97.6,68.2,95.7,66.3,93.3,66.3z"/>
		<path d="M98.5,204.2c-2.7,0-5.5,0.1-7.9,0.1c1.7-2.3,3.9-5.3,6.7-9.3c2.1-3,3.4-5.8,4-8.3c0-0.2,0.1-0.3,0.1-0.5l0.1-1.2
			c0-0.2,0-0.3,0-0.5c0-6.8-5.5-12.4-12.4-12.4c-5.9,0-11,4.2-12.1,10c-0.5,2.3,1.1,4.6,3.4,5c2.3,0.5,4.6-1.1,5-3.4
			c0.3-1.8,1.9-3,3.7-3c2,0,3.7,1.6,3.8,3.6l-0.1,0.7c-0.3,1.1-1,2.8-2.7,5.2c-5,7.2-8,11.1-9.6,13.1c-2,2.6-3.1,4-2.4,6.3
			c0.4,1.4,1.5,2.4,2.9,2.9c0.6,0.2,1.1,0.4,7.2,0.4c2.4,0,5.7,0,10.3-0.1c2.4,0,4.3-2,4.2-4.3C102.8,206.1,100.9,204.2,98.5,204.2
			L98.5,204.2z"/>
		<path d="M89.9,278.2c-5.9,0-11,4.2-12.1,10c-0.5,2.3,1,4.6,3.4,5c2.3,0.5,4.6-1,5-3.4c0.4-1.8,1.9-3.1,3.7-3.1
			c2.1,0,3.8,1.7,3.8,3.8c0,2.1-1.7,3.8-3.8,3.8c-2.4,0-4.3,1.9-4.3,4.3s1.9,4.3,4.3,4.3c2.1,0,3.8,1.7,3.8,3.8
			c0,2.1-1.7,3.8-3.8,3.8c-1.9,0-3.5-1.4-3.7-3.2c0-0.3,0-0.4,0-0.6c0-2.4-1.9-4.3-4.3-4.3c-2.4,0-4.3,1.9-4.3,4.3
			c0,0.5,0,1.1,0.1,1.7c0.8,6.1,6.1,10.6,12.2,10.6c6.8,0,12.4-5.5,12.4-12.4c0-3.1-1.1-5.9-3-8.1c1.9-2.2,3-5,3-8.1
			C102.3,283.7,96.7,278.2,89.9,278.2L89.9,278.2z"/>
		<path d="M149.4,80.5h26.4c2.4,0,4.3-1.9,4.3-4.3c0-2.4-1.9-4.3-4.3-4.3h-26.4c-2.4,0-4.3,1.9-4.3,4.3
			C145.1,78.5,147,80.5,149.4,80.5z"/>
		<path d="M149.4,101.5h53.8c2.4,0,4.3-1.9,4.3-4.3c0-2.4-1.9-4.3-4.3-4.3h-53.8c-2.4,0-4.3,1.9-4.3,4.3
			C145.1,99.6,147,101.5,149.4,101.5L149.4,101.5z"/>
		<path d="M149.4,185.9h26.4c2.4,0,4.3-1.9,4.3-4.3c0-2.4-1.9-4.3-4.3-4.3h-26.4c-2.4,0-4.3,1.9-4.3,4.3
			C145.1,184,147,185.9,149.4,185.9z"/>
		<path d="M203.1,198.4h-53.8c-2.4,0-4.3,1.9-4.3,4.3c0,2.4,1.9,4.3,4.3,4.3h53.8c2.4,0,4.3-1.9,4.3-4.3
			C207.4,200.3,205.5,198.4,203.1,198.4z"/>
		<path d="M149.4,292.7h26.4c2.4,0,4.3-1.9,4.3-4.3c0-2.4-1.9-4.3-4.3-4.3h-26.4c-2.4,0-4.3,1.9-4.3,4.3
			C145.1,290.8,147,292.7,149.4,292.7z"/>
		<path d="M149.4,313.7h53.8c2.4,0,4.3-1.9,4.3-4.3s-1.9-4.3-4.3-4.3h-53.8c-2.4,0-4.3,1.9-4.3,4.3S147,313.7,149.4,313.7
			L149.4,313.7z"/>
		<path d="M297.3,266c-0.7-1.4-2.2-2.3-3.8-2.3h-71.2c-2.4,0-4.3,1.9-4.3,4.3s1.9,4.3,4.3,4.3h68.6l13.8,26.4L290.9,325H130.1v-52.7
			h72.1c2.4,0,4.3-1.9,4.3-4.3s-1.9-4.3-4.3-4.3h-72.4c-0.9-3-3.7-5.3-7-5.3h-66c-4,0-7.2,3.2-7.2,7.2v66c0,4,3.2,7.2,7.2,7.2h66
			c3.3,0,6.1-2.3,7-5.3h163.6c1.6,0,3.1-0.9,3.8-2.3l16-30.6c0.7-1.2,0.7-2.7,0-4L297.3,266z M121.6,330.3H58.3V267h63.3V330.3z"/>
	</g>
</g>
<g>
	<path d="M370.2,55.2l19.6,40.3l-9.4,19.3l-29.1-59.6H370.2z M439.3,84.8l-36.6,75.4l-9.5-19.3l27.2-56.1H439.3z"/>
	<path d="M481.7,57.5h17v99.9h-17V57.5z"/>
	<path d="M551.1,115.9c-5.5,0-10.1-1.9-14-5.8c-3.8-3.8-5.8-8.5-5.8-14V77.3c0-4.9,1.6-9.3,4.9-13c3.2-3.7,7.2-5.9,12-6.6H608v16.8
		h-59.8v21.6c0,0.8,0.3,1.5,0.9,2c0.5,0.6,1.2,0.9,2,0.9h42.2c4.9,0,9.3,1.6,13,4.9c3.7,3.2,5.9,7.2,6.6,12h-19.5h-0.1H551.1z
		 M613.1,133.3v4.3c0,5.4-1.9,10.1-5.8,14c-3.8,3.8-8.5,5.8-14,5.8h-58v-17h58c0.8,0,1.4-0.3,2-0.8c0.6-0.6,0.9-1.2,0.9-2v-4.3
		H613.1z"/>
	<path d="M680.6,140.4v17h-15.5c-5.5,0-10.1-1.9-14-5.8c-3.8-3.9-5.8-8.6-5.8-14V57.5h17v80.1c0,0.8,0.3,1.4,0.8,2
		c0.6,0.5,1.3,0.8,2.1,0.8H680.6z M710.2,57.5H727v99.9h-16.9V57.5z"/>
	<path d="M861.5,157.4h-18.9l-6.8-14.1h-19.4v-17h11l-17.2-35.4l-32.4,66.4h-18.9l51.3-99.9L861.5,157.4z"/>
	<path d="M351.3,232.8h17V295h-17V232.8z M351.3,315.6h65.4v17h-65.4V315.6z"/>
	<path d="M502.1,232.7h17v99.9h-17V232.7z"/>
	<path d="M624.8,291.1c-5.5,0-10.1-1.9-14-5.8c-3.8-3.8-5.8-8.5-5.8-14v-18.7c0-4.9,1.6-9.3,4.9-13c3.2-3.7,7.2-5.9,12-6.6h59.8
		v16.8h-59.8v21.6c0,0.8,0.3,1.5,0.9,2c0.5,0.6,1.2,0.9,2,0.9H667c4.9,0,9.3,1.6,13,4.9c3.7,3.2,5.9,7.2,6.6,12h-19.5H667H624.8z
		 M686.8,308.5v4.3c0,5.4-1.9,10.1-5.8,14c-3.8,3.8-8.5,5.8-14,5.8h-58v-17h58c0.8,0,1.4-0.3,2-0.8c0.6-0.6,0.9-1.2,0.9-2v-4.3
		H686.8z"/>
	<path d="M772.3,232.7H849v17h-76.7V232.7z M802.2,271.1h17v61.5h-17V271.1z"/>
</g>
<g>
	<g>
		<path class="st0" d="M-680.4-140.2h167.6l16-30.6l-16-30.6h-167.6V-140.2z"/>
	</g>
	<g>
		<path class="st1" d="M-680.4-140.2v-61.3v-2.3c0-1.6-1.3-2.9-3-2.9h-66c-1.6,0-2.9,1.3-2.9,2.9v66c0,1.6,1.3,2.9,2.9,3h0h66h0
			c1.6,0,2.9-1.3,2.9-3L-680.4-140.2L-680.4-140.2z"/>
	</g>
	<g>
		<path class="st1" d="M-749.3-241.1h66c1.6,0,3-1.3,3-2.9v-2.3v-61.3v-2.3c0-1.6-1.3-3-3-3h-66c-1.6,0-2.9,1.3-2.9,3v66
			C-752.2-242.4-750.9-241.1-749.3-241.1z"/>
	</g>
	<g>
		<path class="st2" d="M-680.4-307.6v61.3h167.6l16-30.6l-16-30.6H-680.4z"/>
	</g>
	<g>
		<path class="st3" d="M-680.4-352.5h167.6l16-30.6l-16-30.6h-167.6V-352.5z"/>
	</g>
	<g>
		<path class="st1" d="M-680.4-352.5v-61.3v-2.3c0-1.6-1.3-2.9-3-2.9h-66c-1.6,0-2.9,1.3-2.9,2.9v66c0,1.6,1.3,3,2.9,3h66
			c1.6,0,3-1.3,3-3V-352.5z"/>
	</g>
	<g>
		<path class="st4" d="M-701.2-413.7v61.3v2.3c0,1.6-1.3,3-3,3h20.9c1.6,0,3-1.3,3-3v-2.3v-61.3v-2.3c0-1.6-1.3-2.9-3-2.9h-20.9
			c1.6,0,3,1.3,3,2.9V-413.7z"/>
	</g>
	<g>
		<path class="st4" d="M-683.3-312.9h-20.9c1.6,0,3,1.3,3,3v2.3v61.3v2.3c0,1.6-1.3,2.9-3,2.9h20.9c1.6,0,3-1.3,3-2.9v-2.3v-61.3
			v-2.3C-680.4-311.6-681.7-312.9-683.3-312.9z"/>
	</g>
	<g>
		<path class="st4" d="M-683.3-206.8h-20.9c1.6,0,3,1.3,3,2.9v2.3v61.3v2.3c0,1.6-1.3,2.9-2.9,3h20.8h0c1.6,0,2.9-1.3,2.9-3v-2.3
			v-61.3v-2.3C-680.4-205.5-681.7-206.8-683.3-206.8z"/>
	</g>
	<g>
		<path class="st5" d="M-538.8-413.7c3.8,10.5,5.9,22.2,5.9,34.6c0,9.4-1.2,18.3-3.5,26.7h23.6l16-30.6l-16-30.6L-538.8-413.7
			L-538.8-413.7z"/>
	</g>
	<g>
		<path class="st6" d="M-538.8-307.6c3.8,10.5,5.9,22.2,5.9,34.6c0,9.3-1.2,18.3-3.5,26.7h23.6l16-30.6l-16-30.6H-538.8z"/>
	</g>
	<g>
		<path class="st7" d="M-538.8-201.5c3.8,10.5,5.9,22.2,5.9,34.6c0,9.3-1.2,18.3-3.5,26.7h23.6l16-30.6l-16-30.6L-538.8-201.5
			L-538.8-201.5z"/>
	</g>
	<g>
		<path d="M-749.3-342.9h66c3.3,0,6.1-2.3,7-5.3h163.6c1.6,0,3.1-0.9,3.8-2.3l16-30.6c0.7-1.2,0.7-2.7,0-4l-16-30.6
			c-0.7-1.4-2.2-2.3-3.8-2.3h-71.2c-2.4,0-4.3,1.9-4.3,4.3s1.9,4.3,4.3,4.3h68.6l13.8,26.4l-13.8,26.3h-160.8v-52.7h72.1
			c2.4,0,4.3-1.9,4.3-4.3c0-2.4-1.9-4.3-4.3-4.3h-72.4c-0.9-3-3.7-5.3-7-5.3h-66c-4,0-7.2,3.2-7.2,7.2v66
			C-756.5-346.1-753.3-342.9-749.3-342.9L-749.3-342.9z M-747.9-414.7h63.3v63.3h-63.3V-414.7z"/>
		<path d="M-508.9-309.6c-0.7-1.4-2.2-2.3-3.8-2.3h-163.6c-0.9-3-3.7-5.3-7-5.3h-66c-4,0-7.2,3.2-7.2,7.2v66c0,4,3.2,7.2,7.2,7.2h66
			c3.3,0,6.1-2.2,7-5.3h163.6c1.6,0,3.1-0.9,3.8-2.3l16-30.6c0.7-1.2,0.7-2.7,0-4L-508.9-309.6z M-684.6-245.3h-63.3v-63.3h63.3
			V-245.3z M-515.3-250.6h-160.8v-52.7h160.8l13.8,26.4L-515.3-250.6z"/>
		<path d="M-712.9-403.2h-6.7c-2.4,0-4.3,1.9-4.3,4.3s1.9,4.3,4.3,4.3h2.5v27.3c0,2.4,1.9,4.3,4.3,4.3s4.3-1.9,4.3-4.3v-31.5
			C-708.6-401.3-710.6-403.2-712.9-403.2z"/>
		<path d="M-707.7-265.3c-2.7,0-5.5,0.1-7.9,0.1c1.7-2.3,3.9-5.3,6.7-9.3c2.1-3,3.4-5.8,4-8.3c0-0.2,0.1-0.3,0.1-0.5l0.1-1.2
			c0-0.2,0-0.3,0-0.5c0-6.8-5.5-12.4-12.4-12.4c-5.9,0-11,4.2-12.1,10c-0.5,2.3,1.1,4.6,3.4,5c2.3,0.5,4.6-1.1,5-3.4
			c0.3-1.8,1.9-3,3.7-3c2,0,3.7,1.6,3.8,3.6l-0.1,0.7c-0.3,1.1-1,2.8-2.7,5.2c-5,7.2-8,11.1-9.6,13.1c-2,2.6-3.1,4-2.4,6.3
			c0.4,1.4,1.5,2.4,2.9,2.9c0.6,0.2,1.1,0.4,7.2,0.4c2.4,0,5.7,0,10.3-0.1c2.4,0,4.3-2,4.2-4.3
			C-703.4-263.4-705.3-265.3-707.7-265.3L-707.7-265.3z"/>
		<path d="M-716.3-191.3c-5.9,0-11,4.2-12.1,10c-0.5,2.3,1,4.6,3.4,5c2.3,0.5,4.6-1,5-3.4c0.4-1.8,1.9-3.1,3.7-3.1
			c2.1,0,3.8,1.7,3.8,3.8c0,2.1-1.7,3.8-3.8,3.8c-2.4,0-4.3,1.9-4.3,4.3s1.9,4.3,4.3,4.3c2.1,0,3.8,1.7,3.8,3.8
			c0,2.1-1.7,3.8-3.8,3.8c-1.9,0-3.5-1.4-3.7-3.2c0-0.3,0-0.4,0-0.6c0-2.4-1.9-4.3-4.3-4.3s-4.3,1.9-4.3,4.3c0,0.5,0,1.1,0.1,1.7
			c0.8,6.1,6.1,10.6,12.2,10.6c6.8,0,12.4-5.5,12.4-12.4c0-3.1-1.1-5.9-3-8.1c1.9-2.2,3-5,3-8.1
			C-703.9-185.8-709.5-191.3-716.3-191.3L-716.3-191.3z"/>
		<path d="M-656.9-389h26.4c2.4,0,4.3-1.9,4.3-4.3s-1.9-4.3-4.3-4.3h-26.4c-2.4,0-4.3,1.9-4.3,4.3S-659.2-389-656.9-389z"/>
		<path d="M-656.9-368h53.8c2.4,0,4.3-1.9,4.3-4.3s-1.9-4.3-4.3-4.3h-53.8c-2.4,0-4.3,1.9-4.3,4.3S-659.2-368-656.9-368L-656.9-368z
			"/>
		<path d="M-656.9-283.6h26.4c2.4,0,4.3-1.9,4.3-4.3c0-2.4-1.9-4.3-4.3-4.3h-26.4c-2.4,0-4.3,1.9-4.3,4.3
			C-661.1-285.5-659.2-283.6-656.9-283.6z"/>
		<path d="M-603.1-271.1h-53.8c-2.4,0-4.3,1.9-4.3,4.3c0,2.4,1.9,4.3,4.3,4.3h53.8c2.4,0,4.3-1.9,4.3-4.3
			C-598.8-269.2-600.7-271.1-603.1-271.1z"/>
		<path d="M-656.9-176.8h26.4c2.4,0,4.3-1.9,4.3-4.3c0-2.4-1.9-4.3-4.3-4.3h-26.4c-2.4,0-4.3,1.9-4.3,4.3
			C-661.1-178.7-659.2-176.8-656.9-176.8z"/>
		<path d="M-656.9-155.7h53.8c2.4,0,4.3-1.9,4.3-4.3c0-2.4-1.9-4.3-4.3-4.3h-53.8c-2.4,0-4.3,1.9-4.3,4.3
			C-661.1-157.7-659.2-155.7-656.9-155.7L-656.9-155.7z"/>
		<path d="M-508.9-203.5c-0.7-1.4-2.2-2.3-3.8-2.3h-71.2c-2.4,0-4.3,1.9-4.3,4.3c0,2.4,1.9,4.3,4.3,4.3h68.6l13.8,26.4l-13.8,26.3
			h-160.8v-52.7h72.1c2.4,0,4.3-1.9,4.3-4.3c0-2.4-1.9-4.3-4.3-4.3h-72.4c-0.9-3-3.7-5.3-7-5.3h-66c-4,0-7.2,3.2-7.2,7.2v66
			c0,4,3.2,7.2,7.2,7.2h66c3.3,0,6.1-2.3,7-5.3h163.6c1.6,0,3.1-0.9,3.8-2.3l16-30.6c0.7-1.2,0.7-2.7,0-4L-508.9-203.5z
			 M-684.6-139.2h-63.3v-63.3h63.3V-139.2z"/>
	</g>
</g>
<rect x="-454.9" y="-412" style="fill:none;" width="600" height="281.3"/>
<text transform="matrix(1 0 0 1 -454.9261 -312.0893)"><tspan x="0" y="0" style="font-family:'Raleigh'; font-size:146px; letter-spacing:-43;">VISUA </tspan><tspan x="0" y="175.2" style="font-family:'Raleigh'; font-size:146px; letter-spacing:9;">LIST</tspan></text>
</svg>
